<svg width="25" height="25" viewBox="0 0 25 25" fill="none" xmlns="http://www.w3.org/2000/svg">
<path fill-rule="evenodd" clip-rule="evenodd" d="M4.10156 0.976562V1.95312H3.21484C1.97695 1.95312 0.878516 2.55938 0.393164 3.51055C0.015625 4.25078 0 4.64629 0 13.4766C0 22.3068 0.015625 22.7023 0.393164 23.4426C0.646289 23.9389 1.06113 24.3537 1.55742 24.6068C2.30078 24.9859 2.69102 25 12.5 25C22.309 25 22.6992 24.9859 23.4426 24.6068C23.9389 24.3537 24.3537 23.9389 24.6068 23.4426C24.9844 22.7023 25 22.3068 25 13.4766C25 4.64629 24.9844 4.25078 24.6068 3.51055C24.1215 2.55938 23.023 1.95312 21.7852 1.95312H20.8984V0.976562V0H19.9219H18.9453V0.976562V1.95312H12.5H6.05469V0.976562V0H5.07812H4.10156V0.976562ZM4.10156 4.88281V5.85938H5.07812H6.05469V4.88281V3.90625H12.5H18.9453V4.88281V5.85938H19.9219H20.8984V4.88281V3.90625H21.6154C22.7469 3.90625 23.0469 4.32188 23.0469 5.88965V7.22656H12.5H1.95312V5.92363C1.95312 4.33535 2.25039 3.90625 3.35059 3.90625H4.10156V4.88281ZM23.0469 15.7561C23.0469 21.6014 23.0109 22.3723 22.7236 22.6896C22.4186 23.0268 21.8443 23.0469 12.534 23.0469C3.62715 23.0469 2.63281 23.0154 2.31035 22.7236C1.97773 22.4227 1.95312 21.9461 1.95312 15.79V9.17969H12.5H23.0469V15.7561ZM3.71094 12.207V13.2812H4.6875H5.66406V12.207V11.1328H4.6875H3.71094V12.207ZM7.61719 12.207V13.2812H8.59375H9.57031V12.207V11.1328H8.59375H7.61719V12.207ZM11.5234 12.207V13.2812H12.5H13.4766V12.207V11.1328H12.5H11.5234V12.207ZM15.4297 12.207V13.2812H16.4062H17.3828V12.207V11.1328H16.4062H15.4297V12.207ZM19.3359 12.207V13.2812H20.3125H21.2891V12.207V11.1328H20.3125H19.3359V12.207ZM3.71094 16.1133V17.1875H4.6875H5.66406V16.1133V15.0391H4.6875H3.71094V16.1133ZM7.61719 16.1133V17.1875H8.59375H9.57031V16.1133V15.0391H8.59375H7.61719V16.1133ZM11.5234 16.1133V17.1875H12.5H13.4766V16.1133V15.0391H12.5H11.5234V16.1133ZM15.4297 16.1133V17.1875H16.4062H17.3828V16.1133V15.0391H16.4062H15.4297V16.1133ZM19.3359 16.1133V17.1875H20.3125H21.2891V16.1133V15.0391H20.3125H19.3359V16.1133ZM3.71094 20.0195V21.0938H4.6875H5.66406V20.0195V18.9453H4.6875H3.71094V20.0195ZM7.61719 20.0195V21.0938H8.59375H9.57031V20.0195V18.9453H8.59375H7.61719V20.0195ZM11.5234 20.0195V21.0938H12.5H13.4766V20.0195V18.9453H12.5H11.5234V20.0195ZM15.4297 20.0195V21.0938H16.4062H17.3828V20.0195V18.9453H16.4062H15.4297V20.0195Z" fill="#F6AA00"/>
</svg>
