<svg width="21" height="13" viewBox="0 0 21 13" fill="none" xmlns="http://www.w3.org/2000/svg">
<path fill-rule="evenodd" clip-rule="evenodd" d="M9.72169 0.00740751C7.30224 0.286353 5.05586 1.37562 2.672 3.42587C1.84006 4.14139 0.467868 5.58687 0.111493 6.1232C-0.0371643 6.34687 -0.0371643 6.6595 0.111493 6.88316C0.303017 7.17143 1.10027 8.07114 1.66506 8.63647C3.69205 10.6654 5.95047 12.0897 8.07828 12.6812C9.00405 12.9385 9.47168 13 10.5026 13C11.5335 13 12.0011 12.9385 12.9269 12.6812C15.4217 11.9877 18.1624 10.0937 20.3502 7.55125C20.949 6.85533 21 6.77305 21 6.50318C21 6.23332 20.949 6.15104 20.3502 5.45512C18.1771 2.92977 15.4436 1.03387 12.9686 0.33547C12.138 0.101083 11.5892 0.0217269 10.6875 0.0055677C10.2354 -0.00251187 9.80081 -0.00171201 9.72169 0.00740751ZM11.5095 1.40417C13.4465 1.68812 15.555 2.79718 17.5811 4.59764C18.1987 5.14646 19.4212 6.41427 19.4212 6.50598C19.4212 6.52114 19.2795 6.69125 19.1063 6.88404C16.7146 9.54646 13.99 11.2386 11.5095 11.6022C10.9827 11.6794 10.0224 11.6794 9.49564 11.6022C7.7097 11.3404 5.7996 10.3924 3.9061 8.82818C3.22113 8.26233 1.58397 6.62314 1.58397 6.50318C1.58397 6.48651 1.72568 6.31511 1.89887 6.12232C4.2748 3.4775 6.9981 1.77895 9.45993 1.40637C9.95888 1.33086 11.0017 1.32974 11.5095 1.40417ZM9.92719 2.48744C8.14745 2.8045 6.88208 3.93124 6.45045 5.58323C6.33944 6.00821 6.33944 6.99816 6.45045 7.42314C6.84735 8.94218 7.99641 10.0604 9.55729 10.4467C9.99398 10.5547 11.0112 10.5547 11.4479 10.4467C13.0088 10.0604 14.1578 8.94218 14.5547 7.42314C14.6152 7.19167 14.6331 6.98156 14.6331 6.50318C14.6331 6.02481 14.6152 5.8147 14.5547 5.58323C14.163 4.08407 13.0501 2.98449 11.5095 2.57459C11.2289 2.49996 10.181 2.44224 9.92719 2.48744ZM11.159 3.8886C11.9301 4.05583 12.63 4.60484 12.9895 5.32437C13.2024 5.75058 13.2675 6.07953 13.2465 6.62318C13.2266 7.13771 13.1252 7.48881 12.879 7.89515C12.7038 8.18426 12.23 8.64543 11.9329 8.8159C11.0672 9.31268 9.93796 9.31268 9.07228 8.8159C8.77521 8.64543 8.30133 8.18426 8.12616 7.89515C7.61571 7.05268 7.61571 5.95369 8.12616 5.11122C8.30133 4.82211 8.77521 4.36094 9.07228 4.19047C9.69383 3.83381 10.4212 3.72861 11.159 3.8886Z" fill="black"/>
</svg>
